<svg width="180" height="180" viewBox="0 0 180 180" fill="none" xmlns="http://www.w3.org/2000/svg">
<rect width="180" height="180" fill="white"/>
<path d="M43 154H53L43 144V154Z" fill="black"/>
<path d="M134 154H124L134 144V154Z" fill="black"/>
<path fill-rule="evenodd" clip-rule="evenodd" d="M146 36H34V52H106V60H34H26V52V36V28H34H146H154V36V52V60H146V52V36ZM114 60H138V52H114V60ZM146 83H34V99H106V107H34H26V99V83V75H34H146H154V83V99V107H146V99V83ZM114 107H138V99H114V107ZM34 130H146V146V154H154V146V130V122H146H34H26V130V146V154H34H106V146H34V130ZM138 154H114V146H138V154Z" fill="black"/>
<path fill-rule="evenodd" clip-rule="evenodd" d="M114 52H138V60H114V52ZM114 99H138V107H114V99ZM138 146H114V154H138V146Z" fill="#FF5F00"/>
</svg>
